<?xml version="1.0" encoding="UTF-8" standalone="no"?>
<!-- Created with Inkscape (http://www.inkscape.org/) -->

<svg
   width="5780.917"
   height="953.37598"
   viewBox="0 0 1529.5342 252.24739"
   version="1.1"
   id="svg5"
   inkscape:version="1.2.2 (732a01da63, 2022-12-09)"
   sodipodi:docname="mistertfy64-wordmark-new-light.svg"
   xmlns:inkscape="http://www.inkscape.org/namespaces/inkscape"
   xmlns:sodipodi="http://sodipodi.sourceforge.net/DTD/sodipodi-0.dtd"
   xmlns="http://www.w3.org/2000/svg"
   xmlns:svg="http://www.w3.org/2000/svg">
  <sodipodi:namedview
     id="namedview7"
     pagecolor="#ffffff"
     bordercolor="#000000"
     borderopacity="0.25"
     inkscape:showpageshadow="2"
     inkscape:pageopacity="0"
     inkscape:pagecheckerboard="0"
     inkscape:deskcolor="#d1d1d1"
     inkscape:document-units="mm"
     showgrid="false"
     inkscape:zoom="0.125"
     inkscape:cx="2444"
     inkscape:cy="224"
     inkscape:window-width="1920"
     inkscape:window-height="1009"
     inkscape:window-x="-8"
     inkscape:window-y="-8"
     inkscape:window-maximized="1"
     inkscape:current-layer="text124" />
  <defs
     id="defs2">
    <filter
       style="color-interpolation-filters:sRGB;"
       inkscape:label="Invert"
       id="filter126"
       x="0"
       y="0"
       width="1"
       height="1">
      <feColorMatrix
         values="-1 0 0 0 1 0 -1 0 0 1 0 0 -1 0 1 -0.21 -0.72 -0.07 2 0 "
         result="color2"
         id="feColorMatrix124" />
    </filter>
    <filter
       style="color-interpolation-filters:sRGB;"
       inkscape:label="Invert"
       id="filter130"
       x="0"
       y="0"
       width="1"
       height="1">
      <feColorMatrix
         values="-1 0 0 0 1 0 -1 0 0 1 0 0 -1 0 1 -0.21 -0.72 -0.07 2 0 "
         result="color2"
         id="feColorMatrix128" />
    </filter>
    <filter
       style="color-interpolation-filters:sRGB;"
       inkscape:label="Invert"
       id="filter134"
       x="0"
       y="0"
       width="1"
       height="1">
      <feColorMatrix
         values="-1 0 0 0 1 0 -1 0 0 1 0 0 -1 0 1 -0.21 -0.72 -0.07 2 0 "
         result="color2"
         id="feColorMatrix132" />
    </filter>
    <filter
       style="color-interpolation-filters:sRGB;"
       inkscape:label="Invert"
       id="filter138"
       x="0"
       y="0"
       width="1"
       height="1">
      <feColorMatrix
         values="-1 0 0 0 1 0 -1 0 0 1 0 0 -1 0 1 -0.21 -0.72 -0.07 2 0 "
         result="color2"
         id="feColorMatrix136" />
    </filter>
    <filter
       style="color-interpolation-filters:sRGB;"
       inkscape:label="Invert"
       id="filter142"
       x="0"
       y="0"
       width="1"
       height="1">
      <feColorMatrix
         values="-1 0 0 0 1 0 -1 0 0 1 0 0 -1 0 1 -0.21 -0.72 -0.07 2 0 "
         result="color2"
         id="feColorMatrix140" />
    </filter>
    <filter
       style="color-interpolation-filters:sRGB;"
       inkscape:label="Invert"
       id="filter146"
       x="0"
       y="0"
       width="1"
       height="1">
      <feColorMatrix
         values="-1 0 0 0 1 0 -1 0 0 1 0 0 -1 0 1 -0.21 -0.72 -0.07 2 0 "
         result="color2"
         id="feColorMatrix144" />
    </filter>
    <filter
       style="color-interpolation-filters:sRGB;"
       inkscape:label="Invert"
       id="filter150"
       x="0"
       y="0"
       width="1"
       height="1">
      <feColorMatrix
         values="-1 0 0 0 1 0 -1 0 0 1 0 0 -1 0 1 -0.21 -0.72 -0.07 2 0 "
         result="color2"
         id="feColorMatrix148" />
    </filter>
    <filter
       style="color-interpolation-filters:sRGB;"
       inkscape:label="Invert"
       id="filter154"
       x="0"
       y="0"
       width="1"
       height="1">
      <feColorMatrix
         values="-1 0 0 0 1 0 -1 0 0 1 0 0 -1 0 1 -0.21 -0.72 -0.07 2 0 "
         result="color2"
         id="feColorMatrix152" />
    </filter>
    <filter
       style="color-interpolation-filters:sRGB;"
       inkscape:label="Invert"
       id="filter158"
       x="0"
       y="0"
       width="1"
       height="1">
      <feColorMatrix
         values="-1 0 0 0 1 0 -1 0 0 1 0 0 -1 0 1 -0.21 -0.72 -0.07 2 0 "
         result="color2"
         id="feColorMatrix156" />
    </filter>
    <filter
       style="color-interpolation-filters:sRGB;"
       inkscape:label="Invert"
       id="filter162"
       x="0"
       y="0"
       width="1"
       height="1">
      <feColorMatrix
         values="-1 0 0 0 1 0 -1 0 0 1 0 0 -1 0 1 -0.21 -0.72 -0.07 2 0 "
         result="color2"
         id="feColorMatrix160" />
    </filter>
    <filter
       style="color-interpolation-filters:sRGB;"
       inkscape:label="Invert"
       id="filter166"
       x="0"
       y="0"
       width="1"
       height="1">
      <feColorMatrix
         values="-1 0 0 0 1 0 -1 0 0 1 0 0 -1 0 1 -0.21 -0.72 -0.07 2 0 "
         result="color2"
         id="feColorMatrix164" />
    </filter>
  </defs>
  <g
     inkscape:label="Layer 1"
     inkscape:groupmode="layer"
     id="layer1"
     transform="translate(-43.675867,-8.2259634)">
    <text
       xml:space="preserve"
       style="font-size:225.778px;fill:#000000;stroke-width:0.264583"
       x="85.118942"
       y="114.50523"
       id="text120"><tspan
         sodipodi:role="line"
         id="tspan118"
         style="font-size:225.778px;stroke-width:0.264583"
         x="85.118942"
         y="114.50523" /></text>
    <g
       aria-label="mistertfy64"
       id="text124"
       style="font-size:225.778px;font-family:'Roboto Mono';-inkscape-font-specification:'Roboto Mono';stroke-width:0.264583">
      <path
         d="M 92.358163,88.368588 H 74.057798 V 207.65175 h 19.402797 v -94.91937 q 0.661459,-1.76389 1.653647,-3.3073 1.102432,-1.54341 2.535593,-2.75609 1.874134,-1.54341 4.519985,-2.31512 2.75609,-0.88195 6.39414,-0.88195 3.30731,0 5.73266,0.88195 2.53559,0.77171 4.18924,2.53561 1.76389,1.87414 2.53559,4.74047 0.88194,2.86633 0.88194,6.61459 v 89.40721 h 19.4028 v -89.29696 q 0,-0.66146 0,-1.10244 0,-0.55121 0,-1.10243 0.33073,-2.75608 1.32292,-4.96094 0.99219,-2.31512 2.75608,-4.07902 1.76389,-1.65365 4.40972,-2.64585 2.64584,-0.99219 6.28386,-0.99219 3.41754,0 5.95314,0.88195 2.64583,0.88195 4.40972,2.64585 1.65365,1.87414 2.5356,4.74048 0.88194,2.86632 0.88194,6.61459 v 89.29696 h 19.4028 v -89.07648 q 0,-8.59897 -1.98438,-14.88286 -1.98438,-6.394125 -5.73264,-10.362879 -3.41754,-3.527781 -8.37848,-5.291672 -4.96095,-1.874134 -11.13456,-1.874134 -4.51997,0.110243 -8.37848,1.212675 -3.74827,1.102432 -6.83508,2.976565 -2.42535,1.653648 -4.51997,3.858511 -2.09462,2.204863 -3.63803,4.740456 -1.21267,-2.756079 -2.97656,-4.960942 -1.65365,-2.204863 -3.74827,-3.748268 -2.86632,-1.984377 -6.72483,-2.976565 -3.74827,-1.102432 -8.48872,-1.102432 -8.3785,0.110243 -14.33167,3.638025 -5.842897,3.527781 -9.480921,9.811641 z"
         id="path490"
         style="filter:url(#filter126)" />
      <path
         d="m 221.67345,88.368588 v 17.749182 h 40.56949 v 83.89507 h -40.56949 v 17.63891 h 99.88031 V 190.01284 H 282.63792 V 88.368588 Z M 259.5971,57.05953 q 0,4.960942 2.97657,8.268237 3.08681,3.307295 9.26042,3.307295 6.06338,0 9.15019,-3.307295 3.08681,-3.307295 3.08681,-8.268237 0,-2.756079 -0.88195,-5.071186 -0.88195,-2.315106 -2.64584,-3.85851 -1.43316,-1.433162 -3.63802,-2.204864 -2.20486,-0.881945 -5.07119,-0.881945 -2.86632,0 -5.18142,0.881945 -2.20487,0.771702 -3.63803,2.204864 -1.76389,1.653647 -2.64583,3.968754 -0.77171,2.315106 -0.77171,4.960942 z"
         id="path492"
         style="filter:url(#filter130)" />
      <path
         d="m 433.23008,176.01196 q 0,2.86632 -1.10243,5.40192 -1.10243,2.53559 -3.19705,4.63021 -3.41754,3.41754 -9.48091,5.40191 -6.06338,1.87414 -14.22137,1.87414 -5.18143,0 -10.4731,-1.10243 -5.29167,-1.10244 -9.59116,-3.74827 -4.40972,-2.64584 -7.38629,-6.94532 -2.86632,-4.29948 -3.30729,-10.58334 h -20.39499 q 0,7.60677 3.41754,14.66234 3.52778,7.05556 10.14237,12.34723 6.50435,5.40192 15.98526,8.70921 9.48091,3.19705 21.60766,3.19705 10.58334,0 19.51304,-2.53559 8.9297,-2.53559 15.3238,-7.16581 6.3941,-4.63021 9.92188,-11.13456 3.63803,-6.50434 3.63803,-14.44185 0,-7.38629 -3.19705,-13.00869 -3.08681,-5.6224 -9.03994,-9.92189 -5.95313,-4.18924 -14.66234,-7.1658 -8.70921,-3.08681 -19.73353,-5.40192 -8.37848,-1.65365 -13.89064,-3.41754 -5.40191,-1.76389 -8.59896,-3.96875 -3.3073,-2.20486 -4.63022,-4.96094 -1.32292,-2.75608 -1.32292,-6.28386 0,-3.41754 1.65365,-6.61459 1.65365,-3.19706 4.96094,-5.62242 3.19706,-2.42536 8.04776,-3.85853 4.96094,-1.43317 11.46528,-1.43317 6.28386,0 11.24481,1.7639 5.07118,1.7639 8.59896,4.63024 3.52778,2.86633 5.51216,6.6146 1.98438,3.63802 1.98438,7.49653 h 20.39498 q 0,-7.82726 -3.41753,-14.55211 -3.3073,-6.83511 -9.48092,-11.906305 -6.17361,-5.071185 -14.99307,-7.937508 -8.81945,-2.866322 -19.84377,-2.866322 -10.25261,0 -18.85158,2.756079 -8.48872,2.756079 -14.66234,7.496535 -6.17361,4.740461 -9.59115,11.134601 -3.41754,6.28388 -3.41754,13.55993 0,7.38629 3.30729,13.00869 3.3073,5.51216 9.37067,9.59115 5.95313,4.18924 14.33161,7.16581 8.48873,2.97656 18.74134,5.07119 8.37848,1.65364 14.00088,3.74826 5.62241,1.98438 9.03994,4.40973 3.41754,2.42535 4.8507,5.40191 1.43316,2.86633 1.43316,6.50435 z"
         id="path494"
         style="filter:url(#filter134)" />
      <path
         d="m 537.74062,59.48488 h -20.50523 v 28.883708 h -31.30906 v 15.764792 h 31.30906 v 64.82302 q 0,11.02431 2.86632,18.85158 2.97656,7.71702 8.04775,12.56772 5.07119,4.96094 11.90626,7.27605 6.94532,2.20486 14.88283,2.20486 4.74046,0 9.48091,-0.44097 4.8507,-0.44097 9.15018,-1.32292 4.29949,-0.7717 7.93751,-1.87413 3.63803,-1.21268 6.17362,-2.75608 l -2.86632,-14.44186 q -1.87414,0.44098 -4.8507,1.10244 -2.86632,0.55121 -6.17362,1.10243 -3.41754,0.55121 -6.94532,0.99219 -3.52778,0.33073 -6.83508,0.33073 -4.51996,0 -8.59896,-1.10244 -3.96876,-1.10243 -7.05556,-3.85851 -3.08681,-2.64583 -4.8507,-7.1658 -1.76389,-4.51997 -1.76389,-11.46529 V 104.13338 H 583.1608 V 88.368588 h -45.42018 z"
         id="path496"
         style="filter:url(#filter138)" />
      <path
         d="m 677.63917,209.85661 q 17.41842,0 29.21444,-6.94532 11.90626,-7.05556 17.85939,-16.0955 l -12.45747,-9.7014 q -5.62241,7.27605 -14.11113,11.68578 -8.48872,4.40972 -19.4028,4.40972 -8.26823,0 -15.10331,-3.0868 -6.83508,-3.08681 -11.68577,-8.48873 -4.74046,-5.07118 -7.49654,-11.68577 -2.64584,-6.61459 -3.41754,-15.3238 v -0.77171 h 85.21797 v -9.15018 q 0,-12.45748 -3.19705,-23.15106 -3.08681,-10.69359 -9.48092,-18.63114 -6.3941,-7.827279 -16.0955,-12.237005 -9.59115,-4.51997 -22.4896,-4.51997 -10.25262,0 -20.06426,4.18924 -9.7014,4.189241 -17.30818,12.016515 -7.71702,7.93756 -12.34723,19.40284 -4.63021,11.35505 -4.63021,25.7969 v 4.63022 q 0,12.45747 4.18924,23.04082 4.18924,10.58334 11.68577,18.30036 7.49654,7.71703 17.96964,12.01651 10.58334,4.29948 23.15106,4.29948 z M 674.99334,102.9207 q 7.82726,0 13.44966,2.86634 5.73265,2.86634 9.48091,7.49656 3.74827,4.63021 5.84289,11.02432 2.09462,6.28386 2.09462,11.79602 v 0.99218 H 641.6999 q 1.21268,-8.26823 4.18924,-14.55209 3.08681,-6.39411 7.49654,-10.80383 4.40972,-4.2995 9.92188,-6.50438 5.51216,-2.31512 11.68578,-2.31512 z"
         id="path498"
         style="filter:url(#filter142)" />
      <path
         d="m 838.59417,86.163725 q -13.00869,0 -23.2613,5.732645 -10.14237,5.622401 -17.41842,15.43408 l -0.11025,-2.97658 -0.88194,-15.985282 h -19.4028 V 207.65175 h 20.50523 v -76.50876 q 1.98438,-5.51216 4.96094,-9.92188 3.08681,-4.51997 7.16581,-7.60678 4.51997,-3.52778 10.58334,-5.29168 6.06338,-1.87415 13.55991,-1.87415 5.84289,0 11.13456,0.66146 5.40192,0.55122 11.35505,1.87415 l 2.75608,-19.954063 q -3.08681,-1.322918 -9.26043,-2.09462 -6.06337,-0.771702 -11.68578,-0.771702 z"
         id="path500"
         style="filter:url(#filter146)" />
      <path
         d="m 944.20717,59.48488 h -20.50523 v 28.883708 h -31.30906 v 15.764792 h 31.30906 v 64.82302 q 0,11.02431 2.86632,18.85158 2.97657,7.71702 8.04775,12.56772 5.07119,4.96094 11.90626,7.27605 6.94532,2.20486 14.88283,2.20486 4.74046,0 9.48091,-0.44097 4.8507,-0.44097 9.15019,-1.32292 4.29948,-0.7717 7.9375,-1.87413 3.63803,-1.21268 6.17362,-2.75608 L 991.281,189.02065 q -1.87413,0.44098 -4.8507,1.10244 -2.86632,0.55121 -6.17362,1.10243 -3.41754,0.55121 -6.94532,0.99219 -3.52778,0.33073 -6.83507,0.33073 -4.51997,0 -8.59897,-1.10244 -3.96875,-1.10243 -7.05556,-3.85851 -3.08681,-2.64583 -4.8507,-7.1658 -1.76389,-4.51997 -1.76389,-11.46529 v -64.82302 h 45.42018 V 88.368588 h -45.42018 z"
         id="path502"
         style="filter:url(#filter150)" />
      <path
         d="m 1061.8372,207.65175 h 20.5053 V 104.13338 h 45.9714 V 88.368588 h -45.9714 v -8.37848 c 0,-4.99769 0.6247,-9.370669 1.8741,-13.118937 1.3229,-3.748267 3.2338,-6.798328 5.7326,-9.150182 2.3519,-2.278359 5.6076,-3.983202 8.8195,-5.071186 3.9693,-1.344529 8.2756,-1.50807 12.4641,-1.64696 8.779,-0.291112 8.5374,-0.190982 12.8036,-0.359463 146.4342,-5.782964 436.0628,-23.386227 439.0761,-22.357291 l 2.4253,-16.867205 c -1.9109,-0.514468 -288.8018,15.913474 -433.2892,22.009706 -1.7303,0.07301 -3.4627,0.09223 -5.1927,0.174442 -2.2465,0.106758 -1.8516,0.01525 -4.3219,0.07601 l -4.0026,0.09845 c -3.5542,0.08742 -6.557,0.185834 -10.1979,0.291369 -6.4294,0.186361 -13.4028,0.50108 -19.1355,2.485457 -5.7326,1.984377 -10.62,4.924195 -14.6623,8.819454 -4.1157,3.895258 -7.3128,8.745957 -9.5912,14.552097 -2.2049,5.732645 -3.3073,12.42073 -3.3073,20.064256 v 8.37848 h -32.8524 V 104.1334 h 32.8524 z"
         id="path504"
         sodipodi:nodetypes="ccccccsccasaccasssssccsccccc"
         style="filter:url(#filter154)" />
      <path
         d="m 1176.7434,254.56136 c 5.3652,0 9.8524,0.27446 13.9681,-1.70991 4.1157,-1.98438 7.717,-4.44648 10.8038,-7.3863 3.0868,-2.93981 5.6959,-6.13686 7.8273,-9.59115 2.2049,-3.45429 4.0055,-6.72483 5.4019,-9.81164 L 1275.268,88.368588 h -22.8204 l -30.7578,77.390762 -5.6224,14.00088 -5.2917,-14.44186 -32.7422,-76.949782 h -22.8203 l 51.3733,113.660762 -8.158,15.87501 c -0.7349,1.46991 -1.7639,3.34405 -3.0868,5.6224 -1.2494,2.27836 -2.7561,4.48322 -4.52,6.61459 -1.8374,2.13137 -3.932,3.96876 -6.2838,5.51216 -2.2784,1.54341 -5.3207,2.06178 -8.1135,2.06178 -1.0289,0 -1.9554,0.17983 -3.7928,0.0328 -1.7639,-0.0735 -1112.698526,-18.1754 -1114.535926,-18.32239 l -3.3073,16.64672 c 1.322933,0.29398 1112.277926,17.89306 1114.850226,18.33409 2.5723,0.44097 5.1939,0.15477 7.1048,0.15477 z"
         id="path506"
         sodipodi:nodetypes="sssccccccccccccccscccsss"
         style="filter:url(#filter158)" />
      <path
         d="m 1377.5737,47.027402 h -1.7639 q -17.1979,0 -30.7579,4.850699 -13.5599,4.740456 -23.0408,14.221368 -13.7804,13.780396 -18.5208,33.183193 -4.7405,19.402858 -4.7405,39.467108 v 9.59116 q 0,11.68577 3.5278,23.37155 3.5278,11.57553 10.6936,20.28474 6.3941,7.93751 15.7648,12.89845 9.3706,4.96094 21.7179,4.96094 12.237,0 21.4974,-4.29948 9.3707,-4.29948 15.6545,-11.79602 6.2839,-7.38629 9.3707,-17.30818 3.197,-9.92188 3.197,-21.16668 0,-9.81165 -2.6458,-19.29256 -2.6458,-9.48091 -8.2682,-16.97744 -5.6224,-7.49654 -14.3317,-12.01653 -8.7092,-4.63024 -20.7257,-4.63024 -5.5121,0 -10.5833,1.32293 -4.961,1.21268 -9.2604,3.30731 -4.4098,2.20488 -8.158,5.18145 -3.7483,2.86632 -6.6146,6.28386 0.6614,-10.58336 4.1892,-20.615529 3.638,-10.032128 10.5834,-17.308177 6.6146,-6.94532 16.7569,-11.024317 10.1424,-4.18924 24.6945,-4.18924 h 1.7639 z m -26.6789,72.319568 q 7.3863,0 12.8985,3.08681 5.5121,3.08681 9.1502,8.26824 3.638,5.18143 5.4019,11.90626 1.7639,6.61459 1.7639,13.67015 0,7.93751 -1.9844,14.77259 -1.8741,6.72483 -5.6224,11.57553 -3.8585,4.8507 -9.3707,7.60678 -5.5121,2.75608 -12.6779,2.75608 -6.1737,0 -11.7961,-2.86632 -5.6224,-2.97657 -9.9218,-8.59897 -4.2995,-5.6224 -6.8351,-13.7804 -2.5356,-8.26823 -2.5356,-18.85158 v -6.83507 q 1.8741,-5.07119 5.0712,-9.26043 3.197,-4.18924 7.3863,-7.16581 4.1892,-2.97656 9.0399,-4.63021 4.8507,-1.65365 10.0321,-1.65365 z"
         id="path508"
         style="filter:url(#filter162)" />
      <path
         d="M 1520.559,153.74284 V 47.137645 h -21.7179 l -71.8786,111.235405 v 12.01651 h 73.2015 v 37.26219 h 20.395 v -37.26219 h 22.3794 v -16.64672 z m -70.9966,0 47.2943,-73.311759 3.3073,-6.173618 v 79.485377 z"
         id="path510"
         style="filter:url(#filter166)" />
    </g>
  </g>
</svg>
